<mxfile host="app.diagrams.net" agent="Mozilla/5.0 (Windows NT 10.0; Win64; x64) AppleWebKit/537.36 (KHTML, like Gecko) Chrome/132.0.0.0 Safari/537.36" version="26.0.13">
  <diagram name="Page-1" id="OCuA5rZtGPzACFEqdOZb">
    <mxGraphModel dx="1050" dy="522" grid="1" gridSize="10" guides="1" tooltips="1" connect="1" arrows="1" fold="1" page="1" pageScale="1" pageWidth="827" pageHeight="1169" math="0" shadow="0">
      <root>
        <mxCell id="0" />
        <mxCell id="1" parent="0" />
        <mxCell id="W2q8TzZm53dkfeZjHQPR-23" value="&lt;b&gt;User&amp;nbsp;&lt;/b&gt;" style="shape=umlActor;verticalLabelPosition=bottom;verticalAlign=top;html=1;outlineConnect=0;gradientColor=none;" parent="1" vertex="1">
          <mxGeometry x="20" y="240" width="30" height="60" as="geometry" />
        </mxCell>
        <mxCell id="JbB4r5cmHU3wckLrQ06j-1" value="" style="rounded=1;whiteSpace=wrap;html=1;" vertex="1" parent="1">
          <mxGeometry x="357" y="200" width="470" height="140" as="geometry" />
        </mxCell>
        <mxCell id="JbB4r5cmHU3wckLrQ06j-6" value="" style="edgeStyle=orthogonalEdgeStyle;rounded=0;orthogonalLoop=1;jettySize=auto;html=1;" edge="1" parent="1" source="JbB4r5cmHU3wckLrQ06j-2" target="JbB4r5cmHU3wckLrQ06j-3">
          <mxGeometry relative="1" as="geometry" />
        </mxCell>
        <mxCell id="JbB4r5cmHU3wckLrQ06j-2" value="" style="ellipse;whiteSpace=wrap;html=1;aspect=fixed;" vertex="1" parent="1">
          <mxGeometry x="380" y="230" width="80" height="80" as="geometry" />
        </mxCell>
        <mxCell id="JbB4r5cmHU3wckLrQ06j-7" value="" style="edgeStyle=orthogonalEdgeStyle;rounded=0;orthogonalLoop=1;jettySize=auto;html=1;" edge="1" parent="1" source="JbB4r5cmHU3wckLrQ06j-3" target="JbB4r5cmHU3wckLrQ06j-4">
          <mxGeometry relative="1" as="geometry" />
        </mxCell>
        <mxCell id="JbB4r5cmHU3wckLrQ06j-3" value="" style="ellipse;whiteSpace=wrap;html=1;aspect=fixed;" vertex="1" parent="1">
          <mxGeometry x="490" y="230" width="80" height="80" as="geometry" />
        </mxCell>
        <mxCell id="JbB4r5cmHU3wckLrQ06j-8" value="" style="edgeStyle=orthogonalEdgeStyle;rounded=0;orthogonalLoop=1;jettySize=auto;html=1;" edge="1" parent="1" source="JbB4r5cmHU3wckLrQ06j-4" target="JbB4r5cmHU3wckLrQ06j-5">
          <mxGeometry relative="1" as="geometry" />
        </mxCell>
        <mxCell id="JbB4r5cmHU3wckLrQ06j-4" value="" style="ellipse;whiteSpace=wrap;html=1;aspect=fixed;" vertex="1" parent="1">
          <mxGeometry x="610" y="230" width="80" height="80" as="geometry" />
        </mxCell>
        <mxCell id="JbB4r5cmHU3wckLrQ06j-5" value="" style="ellipse;whiteSpace=wrap;html=1;aspect=fixed;" vertex="1" parent="1">
          <mxGeometry x="740" y="230" width="80" height="80" as="geometry" />
        </mxCell>
        <mxCell id="JbB4r5cmHU3wckLrQ06j-11" value="" style="endArrow=classic;html=1;rounded=0;" edge="1" parent="1">
          <mxGeometry width="50" height="50" relative="1" as="geometry">
            <mxPoint x="70" y="270" as="sourcePoint" />
            <mxPoint x="150" y="230" as="targetPoint" />
          </mxGeometry>
        </mxCell>
        <mxCell id="JbB4r5cmHU3wckLrQ06j-13" value="" style="rounded=0;whiteSpace=wrap;html=1;rotation=90;" vertex="1" parent="1">
          <mxGeometry x="90" y="230" width="245" height="120" as="geometry" />
        </mxCell>
        <mxCell id="JbB4r5cmHU3wckLrQ06j-14" value="" style="ellipse;whiteSpace=wrap;html=1;aspect=fixed;" vertex="1" parent="1">
          <mxGeometry x="170" y="180" width="80" height="80" as="geometry" />
        </mxCell>
        <mxCell id="JbB4r5cmHU3wckLrQ06j-18" value="" style="ellipse;whiteSpace=wrap;html=1;aspect=fixed;" vertex="1" parent="1">
          <mxGeometry x="172.5" y="300" width="80" height="80" as="geometry" />
        </mxCell>
        <mxCell id="JbB4r5cmHU3wckLrQ06j-19" value="" style="endArrow=classic;html=1;rounded=0;" edge="1" parent="1">
          <mxGeometry width="50" height="50" relative="1" as="geometry">
            <mxPoint x="150" y="350" as="sourcePoint" />
            <mxPoint x="70" y="310" as="targetPoint" />
          </mxGeometry>
        </mxCell>
        <mxCell id="JbB4r5cmHU3wckLrQ06j-20" value="&lt;b&gt;Input&lt;/b&gt;" style="text;html=1;align=center;verticalAlign=middle;whiteSpace=wrap;rounded=0;" vertex="1" parent="1">
          <mxGeometry x="180" y="210" width="60" height="30" as="geometry" />
        </mxCell>
        <mxCell id="JbB4r5cmHU3wckLrQ06j-21" value="&lt;b&gt;Output&lt;/b&gt;" style="text;html=1;align=center;verticalAlign=middle;whiteSpace=wrap;rounded=0;" vertex="1" parent="1">
          <mxGeometry x="182.5" y="330" width="60" height="30" as="geometry" />
        </mxCell>
        <mxCell id="JbB4r5cmHU3wckLrQ06j-22" value="" style="endArrow=classic;html=1;rounded=0;entryX=0;entryY=0.25;entryDx=0;entryDy=0;" edge="1" parent="1" target="JbB4r5cmHU3wckLrQ06j-1">
          <mxGeometry width="50" height="50" relative="1" as="geometry">
            <mxPoint x="270" y="210" as="sourcePoint" />
            <mxPoint x="340" y="240" as="targetPoint" />
          </mxGeometry>
        </mxCell>
        <mxCell id="JbB4r5cmHU3wckLrQ06j-23" value="" style="endArrow=classic;html=1;rounded=0;" edge="1" parent="1">
          <mxGeometry width="50" height="50" relative="1" as="geometry">
            <mxPoint x="764" y="340" as="sourcePoint" />
            <mxPoint x="280" y="380" as="targetPoint" />
          </mxGeometry>
        </mxCell>
        <mxCell id="JbB4r5cmHU3wckLrQ06j-25" value="&lt;b&gt;Chatbot System&lt;/b&gt;" style="text;html=1;align=center;verticalAlign=middle;whiteSpace=wrap;rounded=0;" vertex="1" parent="1">
          <mxGeometry x="550" y="160" width="110" height="30" as="geometry" />
        </mxCell>
        <mxCell id="JbB4r5cmHU3wckLrQ06j-26" value="&lt;b&gt;Chatbot UI&lt;/b&gt;" style="text;html=1;align=center;verticalAlign=middle;whiteSpace=wrap;rounded=0;" vertex="1" parent="1">
          <mxGeometry x="160" y="130" width="100" height="30" as="geometry" />
        </mxCell>
        <mxCell id="JbB4r5cmHU3wckLrQ06j-27" value="&lt;b&gt;Google Gemini API&lt;/b&gt;" style="text;html=1;align=center;verticalAlign=middle;whiteSpace=wrap;rounded=0;" vertex="1" parent="1">
          <mxGeometry x="385" y="255" width="70" height="30" as="geometry" />
        </mxCell>
        <mxCell id="JbB4r5cmHU3wckLrQ06j-28" value="&lt;b&gt;Database/API&lt;/b&gt;" style="text;html=1;align=center;verticalAlign=middle;whiteSpace=wrap;rounded=0;" vertex="1" parent="1">
          <mxGeometry x="500" y="255" width="60" height="30" as="geometry" />
        </mxCell>
        <mxCell id="JbB4r5cmHU3wckLrQ06j-29" value="fgy" style="text;html=1;align=center;verticalAlign=middle;whiteSpace=wrap;rounded=0;" vertex="1" parent="1">
          <mxGeometry x="30" y="470" width="60" height="30" as="geometry" />
        </mxCell>
      </root>
    </mxGraphModel>
  </diagram>
</mxfile>
